<?xml version="1.0" encoding="utf-8" ?>
<svg xmlns="http://www.w3.org/2000/svg" xmlns:ev="http://www.w3.org/2001/xml-events" xmlns:xlink="http://www.w3.org/1999/xlink" baseProfile="full" height="120px" version="1.1" viewBox="0 0 160 120" width="160px">
  <defs/>
  <path d="M 25 25 L 25 95 L 135 95 L 135 25 Z M 74 36 L 86 36 L 87 37 L 89 37 L 90 38 L 93 39 L 101 47 L 101 48 L 103 51 L 103 53 L 104 54 L 104 66 L 103 67 L 103 69 L 102 70 L 101 73 L 93 81 L 92 81 L 89 83 L 87 83 L 86 84 L 74 84 L 73 83 L 71 83 L 70 82 L 67 81 L 59 73 L 59 72 L 57 69 L 57 67 L 56 66 L 56 54 L 57 53 L 57 51 L 58 50 L 59 47 L 67 39 L 68 39 L 71 37 L 73 37 Z" fill="#000000" fill-rule="evenodd" stroke="none" stroke-width="1"/>
</svg>
